<svg width="128" height="128" viewBox="0 0 128 128" fill="none" xmlns="http://www.w3.org/2000/svg">
  <defs><linearGradient id="gold" x1="18" y1="14" x2="114" y2="112" gradientUnits="userSpaceOnUse"><stop stop-color="#FFF0BF"/><stop offset="0.45" stop-color="#E1B66B"/><stop offset="1" stop-color="#8B5B24"/></linearGradient></defs>
  <path d="M40.5 18C45 18 48.8 21.1 50 25.4L55.9 46.4C56.9 50.1 55.9 54 53.1 56.8L43.2 66.7C50.6 81.4 62.6 93.4 77.3 100.8L87.2 90.9C90 88.1 93.9 87.1 97.6 88.1L118.6 94C122.9 95.2 126 99 126 103.5V118C126 122.4 122.4 126 118 126H108C54.5 126 2 73.5 2 20V10C2 5.6 5.6 2 10 2H24.5C29 2 32.8 5.1 34 9.4L39.9 30.4C40.9 34.1 39.9 38 37.1 40.8L28.2 49.7" transform="translate(0 0) scale(0.9) translate(8 8)" fill="url(#gold)"/>
</svg>
