<svg width="256" height="256" viewBox="0 0 256 256" fill="none" xmlns="http://www.w3.org/2000/svg">
  <defs>
    <linearGradient id="gold" x1="34" y1="24" x2="214" y2="228" gradientUnits="userSpaceOnUse">
      <stop stop-color="#FFF0BF"/>
      <stop offset="0.45" stop-color="#E1B66B"/>
      <stop offset="1" stop-color="#8B5B24"/>
    </linearGradient>
  </defs>
  <path d="M123 20L205 66V154L128 198L50 154V66L123 20Z" stroke="url(#gold)" stroke-width="12"/>
  <path d="M72 148L128 114L184 148V178L128 208L72 178V148Z" fill="url(#gold)" fill-opacity="0.15" stroke="url(#gold)" stroke-width="10"/>
  <path d="M86 124L128 92L170 119" stroke="url(#gold)" stroke-width="12" stroke-linecap="round" stroke-linejoin="round"/>
  <path d="M93 150V118L111 104V138" stroke="url(#gold)" stroke-width="10" stroke-linecap="round" stroke-linejoin="round"/>
  <path d="M112 139V90L131 76V126" stroke="url(#gold)" stroke-width="10" stroke-linecap="round" stroke-linejoin="round"/>
  <path d="M132 126V102L149 113V136" stroke="url(#gold)" stroke-width="10" stroke-linecap="round" stroke-linejoin="round"/>
  <path d="M142 162H162V182H142V162Z" fill="url(#gold)"/>
  <path d="M165 162H185V182H165V162Z" fill="url(#gold)"/>
  <path d="M142 185H162V205H142V185Z" fill="url(#gold)"/>
  <path d="M165 185H185V205H165V185Z" fill="url(#gold)"/>
</svg>
