<svg width="128" height="128" viewBox="0 0 128 128" fill="none" xmlns="http://www.w3.org/2000/svg">
  <defs><linearGradient id="gold" x1="22" y1="12" x2="102" y2="112" gradientUnits="userSpaceOnUse"><stop stop-color="#FFF0BF"/><stop offset="0.45" stop-color="#E1B66B"/><stop offset="1" stop-color="#8B5B24"/></linearGradient></defs>
  <path d="M64 14C43.6 14 27 30.2 27 50.4C27 79.3 57.2 105.8 61.2 109.1C62.8 110.5 65.2 110.5 66.8 109.1C70.8 105.8 101 79.3 101 50.4C101 30.2 84.4 14 64 14ZM64 66.2C55.4 66.2 48.5 59.4 48.5 50.9C48.5 42.4 55.4 35.6 64 35.6C72.6 35.6 79.5 42.4 79.5 50.9C79.5 59.4 72.6 66.2 64 66.2Z" fill="url(#gold)"/>
</svg>
